<svg width="112" height="112" viewBox="0 0 112 112" fill="none" xmlns="http://www.w3.org/2000/svg">
<path d="M72.0355 21.9882H64.1472C62.1552 21.9882 61.1991 22.8429 61.1991 24.7076V48.1332L45.1436 24.0472C44.0281 22.3767 43.3109 22.0659 41.0799 21.9882H33.3111C31.2394 21.9882 30.2833 22.8429 30.2833 24.7076V69.189C30.2833 71.0538 31.2394 71.9084 33.3111 71.9084H41.1994C43.2711 71.9084 44.2273 71.0538 44.2273 69.189V45.88L60.3624 69.8495C61.5576 71.5976 62.1951 71.9084 64.4261 71.9084H72.0754C74.147 71.9084 75.1032 71.0538 75.1032 69.189V24.7076C75.0235 22.8429 74.0674 21.9882 72.0355 21.9882Z" fill="white"/>
<path d="M37.2554 16.9379C42.0521 16.9379 45.9405 13.1462 45.9405 8.46896C45.9405 3.79168 42.0521 0 37.2554 0C32.4588 0 28.5703 3.79168 28.5703 8.46896C28.5703 13.1462 32.4588 16.9379 37.2554 16.9379Z" fill="white"/>
<path d="M9.00885 97.1988C10.0048 95.9556 11.2797 95.2952 12.9928 95.2952C16.1004 95.2952 17.9728 97.393 17.9728 100.151V106.717C18.0127 107.027 17.8135 107.183 17.4948 107.183H16.4191C16.1004 107.183 15.9012 107.027 15.941 106.717V100.19C15.941 98.6361 14.6263 97.3153 12.953 97.3153C11.3196 97.3153 10.0048 98.5973 10.0048 100.035V106.717C10.0447 107.027 9.84549 107.183 9.52677 107.183H8.45109C8.13237 107.183 7.97301 107.027 7.97301 106.717V100.151C7.97301 98.5973 6.6583 97.3153 5.02486 97.3153C3.43126 97.3153 2.0767 98.5584 2.0767 100.035V106.755C2.11654 107.066 1.91734 107.222 1.55878 107.222H0.522946C0.204227 107.222 0.00502709 107.066 0.00502709 106.755V95.9945C-0.0348128 95.6837 0.164387 95.4894 0.522946 95.4894H1.51894C1.79782 95.4894 1.91734 95.606 1.91734 95.8391V96.6549C2.75398 95.8002 3.78982 95.334 5.02486 95.334C6.69814 95.2952 8.01285 95.9556 9.00885 97.1988Z" fill="white"/>
<path d="M19.6064 101.356C19.6064 98.0534 22.3554 95.2952 25.8215 95.2952C27.4947 95.2952 28.929 95.9556 30.1242 97.2764V95.9556C30.1242 95.6448 30.2835 95.5283 30.6023 95.5283H31.5584C31.8771 95.5283 32.0365 95.6837 32.0365 96.0333V106.794C32.0365 107.105 31.8771 107.26 31.5584 107.26H30.6023C30.2835 107.26 30.1242 107.105 30.1242 106.833V105.512C28.9688 106.794 27.5346 107.455 25.8613 107.455C22.3554 107.377 19.6064 104.658 19.6064 101.356ZM29.9648 101.356C29.9648 99.0635 28.1322 97.3153 25.7816 97.3153C23.5107 97.3153 21.6781 99.1023 21.6781 101.356C21.6781 103.648 23.5107 105.396 25.8215 105.396C28.0923 105.396 29.9648 103.609 29.9648 101.356Z" fill="white"/>
<path d="M36.0999 105.473V111.495C36.1397 111.806 35.9405 112 35.6218 112H34.5461C34.2274 112 34.0282 111.845 34.0282 111.495V95.9556C34.0282 95.6448 34.1876 95.4506 34.5461 95.4506H35.5421C35.8608 95.4117 36.06 95.606 36.06 95.8779V97.1599C37.2154 95.8779 38.6496 95.2563 40.2831 95.2563C43.7093 95.2563 46.4981 98.0146 46.4981 101.317C46.4981 104.619 43.7491 107.377 40.2831 107.377C38.6098 107.377 37.2154 106.755 36.0999 105.473ZM40.2432 97.3153C37.9724 97.3153 36.1397 99.1023 36.1397 101.356C36.1397 103.648 37.9724 105.396 40.2831 105.396C42.6336 105.396 44.4264 103.609 44.4264 101.356C44.4264 99.1023 42.5938 97.3153 40.2432 97.3153Z" fill="white"/>
<path d="M50.0041 105.473V111.495C50.044 111.806 49.8448 112 49.526 112H48.4504C48.1316 112 47.9325 111.845 47.9325 111.495V95.9556C47.9325 95.6448 48.0918 95.4506 48.4504 95.4506H49.4464C49.7651 95.4117 49.9643 95.606 49.9643 95.8779V97.1599C51.1196 95.8779 52.5539 95.2563 54.1873 95.2563C57.6135 95.2563 60.4023 98.0146 60.4023 101.317C60.4023 104.619 57.6534 107.377 54.1873 107.377C52.514 107.377 51.1595 106.755 50.0041 105.473ZM54.1475 97.3153C51.8766 97.3153 50.044 99.1023 50.044 101.356C50.044 103.648 51.8766 105.396 54.1873 105.396C56.5379 105.396 58.3307 103.609 58.3307 101.356C58.3307 99.1023 56.498 97.3153 54.1475 97.3153Z" fill="white"/>
<path d="M72.7129 102.094H63.7887C63.9879 104.036 65.8206 105.512 68.0118 105.512C69.207 105.512 70.2428 105.24 71.1591 104.58C71.3583 104.463 71.5575 104.386 71.5974 104.386C71.7567 104.386 71.8762 104.463 71.9958 104.658L72.3941 105.318C72.4738 105.435 72.5137 105.512 72.5137 105.59C72.5137 105.745 72.3942 105.901 72.1153 106.095C70.8404 106.95 69.4062 107.416 67.8922 107.416C64.227 107.416 61.5975 104.774 61.5975 101.356C61.5975 97.9757 64.3066 95.2952 67.693 95.2952C71.0396 95.2952 73.2308 97.7038 73.2308 101.2C73.2308 101.589 73.2308 102.094 72.7129 102.094ZM63.7887 100.54H71.1591C70.9599 98.403 69.6054 97.1211 67.6532 97.1211C65.6612 97.0822 63.9481 98.5196 63.7887 100.54Z" fill="white"/>
<path d="M74.3464 101.356C74.3464 98.0534 77.0953 95.2952 80.5614 95.2952C82.2347 95.2952 83.5892 95.9167 84.7048 97.1987V91.2938C84.6649 90.983 84.8641 90.7887 85.1828 90.7887H86.2585C86.5772 90.7887 86.7764 90.9441 86.7764 91.2938V106.755C86.7764 107.066 86.6171 107.222 86.2585 107.222H85.2625C84.9438 107.26 84.7446 107.066 84.7446 106.794V105.473C83.5494 106.755 82.155 107.416 80.5216 107.416C77.0953 107.377 74.3464 104.658 74.3464 101.356ZM84.6649 101.356C84.6649 99.0635 82.8323 97.3153 80.4817 97.3153C78.2108 97.3153 76.3782 99.1023 76.3782 101.356C76.3782 103.648 78.2109 105.396 80.5216 105.396C82.8323 105.396 84.6649 103.609 84.6649 101.356Z" fill="white"/>
<path d="M89.1269 93.1973C89.1269 92.5758 89.605 92.1096 90.2424 92.1096C90.8799 92.1096 91.358 92.6146 91.358 93.1973C91.358 93.8189 90.8799 94.2851 90.2424 94.2851C89.605 94.3239 89.1269 93.8578 89.1269 93.1973ZM89.2066 106.717V95.9556C89.2066 95.6448 89.366 95.4506 89.6847 95.4506H90.7604C91.0791 95.4506 91.2783 95.6059 91.2384 95.9556V106.717C91.2783 107.027 91.0791 107.183 90.7604 107.183H89.6847C89.366 107.183 89.2066 107.027 89.2066 106.717Z" fill="white"/>
<path d="M95.5015 95.8391V96.616C96.378 95.7225 97.4138 95.2952 98.6488 95.2952C101.717 95.2952 103.589 97.3541 103.589 100.112V106.717C103.629 107.027 103.43 107.183 103.111 107.183H102.035C101.717 107.183 101.557 107.027 101.557 106.717V100.151C101.557 98.5973 100.242 97.3153 98.609 97.3153C97.0154 97.3153 95.6609 98.5584 95.6609 100.035V106.755C95.7007 107.066 95.5015 107.222 95.1429 107.222H94.0673C93.7485 107.222 93.5493 107.066 93.5493 106.755V95.9556C93.5095 95.6448 93.7087 95.4894 94.0673 95.4894H95.0633C95.3421 95.4894 95.5015 95.606 95.5015 95.8391Z" fill="white"/>
<path d="M109.087 106.834C110.711 106.834 112 105.526 112 103.972V103.956C112 102.402 110.728 101.111 109.087 101.111C107.463 101.111 106.173 102.419 106.173 103.972V103.989C106.173 105.542 107.446 106.834 109.087 106.834ZM109.087 106.523C107.613 106.523 106.508 105.378 106.508 103.989V103.972C106.508 102.582 107.63 101.421 109.087 101.421C110.56 101.421 111.665 102.566 111.665 103.956V103.972C111.665 105.362 110.543 106.523 109.087 106.523ZM107.948 105.362H108.517V104.365H109.137L109.84 105.362H110.527L109.74 104.267C110.142 104.152 110.426 103.858 110.426 103.383C110.426 102.778 109.941 102.468 109.288 102.468H107.948V105.362ZM108.517 103.907V102.958H109.237C109.622 102.958 109.84 103.122 109.84 103.433C109.84 103.711 109.622 103.907 109.237 103.907H108.517Z" fill="white"/>
</svg>
